PathFileType	4	(X/Y/Z)	pose_F01_0-91.trc
DataRate	CameraRate	NumFrames	NumMarkers	Units	OrigDataRate	OrigDataStartFrame	OrigNumFrames
30	30	9	21	m	30	0	91
Frame#	Time	CHip			RHip			RKnee			RAnkle			RBigToe			RSmallToe			RHeel			LHip			LKnee			LAnkle			LBigToe			LSmallToe			LHeel			Neck			Nose			RShoulder			RElbow			RWrist			LShoulder			LElbow			LWrist			
		X1	Y1	Z1	X2	Y2	Z2	X3	Y3	Z3	X4	Y4	Z4	X5	Y5	Z5	X6	Y6	Z6	X7	Y7	Z7	X8	Y8	Z8	X9	Y9	Z9	X10	Y10	Z10	X11	Y11	Z11	X12	Y12	Z12	X13	Y13	Z13	X14	Y14	Z14	X15	Y15	Z15	X16	Y16	Z16	X17	Y17	Z17	X18	Y18	Z18	X19	Y19	Z19	X20	Y20	Z20	X21	Y21	Z21	
0	0.0	-0.19201775886866307	1.8499735436516507	-0.5810879513034174	-0.20560405050621677	1.8470227655577545	-0.5058863532100506	-0.23327983290845877	1.7238665492838914	-0.4865277381360258	-0.21067129258244877	1.5748106594039626	-0.43702005923421067	-0.20518086165084057	1.5749627837428932	-0.37339874842517246	-0.19873538764215026	1.5877587476652217	-0.3591809035769447	-0.21015926431788637	1.5798355256615375	-0.44675774119142736	-0.17102135084555137	1.8530712999147443	-0.6275403026985653	-0.18675423918060052	1.7119372535850361	-0.6488998542437285	-0.1843463406275287	1.5571879315849506	-0.6535814116034917	-0.2045366965738393	1.5379981696419074	-0.6600241665470392	-0.1937734823114438	1.5376363721238906	-0.6898857487299939	-0.18488862308070297	1.5552456402622727	-0.6669753265499782	-0.19567618189120056	2.0518645020801594	-0.5885345909509037	-0.22125299088542102	2.120209144084596	-0.5700197743819274	-0.1954057568131585	2.04945230704035	-0.5096257949249142	-0.21625912215730844	1.9264923512843606	-0.4704707056486751	-0.20309314987896798	1.8488088608585878	-0.46338851502137934	-0.17930171430257702	2.0470602907679436	-0.6832391088817138	-0.18365507084295501	1.9533906770790392	-0.6756641539976476	-0.14619435044420165	1.8590148412881609	-0.702218622084651
1	0.03333333333333333	-0.19412460219767091	1.8539558351729801	-0.5796496389733704	-0.20767526269674527	1.8510995050559018	-0.504443650226818	-0.2305824198306113	1.7253902288486818	-0.4854549908740057	-0.2108597836643015	1.5761140815380246	-0.4369079068292264	-0.20518086165084057	1.5749627837428932	-0.37339874842517246	-0.19873538764215026	1.5877587476652217	-0.3591809035769447	-0.2100257530927739	1.57932121345235	-0.44689203070327227	-0.17406084876904956	1.8570944076429061	-0.6290025581826222	-0.1867600943548525	1.7146274511083235	-0.6492544793805365	-0.1838361988130851	1.5599098137022782	-0.6547143012714199	-0.20476454525626098	1.5366317225145179	-0.6594110073859432	-0.19376109999734079	1.5376493007205991	-0.6898836957142229	-0.18333095146653564	1.556861786384409	-0.6651777826709484	-0.1957316442393083	2.051884279274425	-0.5883984222832144	-0.22122770384055204	2.1201973286897293	-0.5700885234187998	-0.1973170419164051	2.049358621216929	-0.5074097494246703	-0.2153963707308436	1.930848457289474	-0.46855003803889733	-0.20613734463397143	1.8531735999601036	-0.45655487825132895	-0.17934467603784204	2.0483891046803335	-0.6835880751362159	-0.18218674835129145	1.955957852526767	-0.6813513465000225	-0.15037531398295303	1.863159540579091	-0.7067027974896234
2	0.06666666666666667	-0.19623144552667876	1.8579381266943096	-0.5782113266433234	-0.20974647488727377	1.8551762445540492	-0.5030009472435855	-0.22788500675276385	1.7269139084134721	-0.48438224361198556	-0.21104827474615423	1.5774175036720866	-0.4367957544242422	-0.20518086165084057	1.5749627837428932	-0.37339874842517246	-0.19873538764215026	1.5877587476652217	-0.3591809035769447	-0.20989224186766145	1.5788069012431625	-0.4470263202151172	-0.17710034669254776	1.861117515371068	-0.6304648136666791	-0.18676594952910447	1.7173176486316108	-0.6496091045173444	-0.18332605699864152	1.5626316958196058	-0.6558471909393482	-0.20499239393868265	1.5352652753871283	-0.6587978482248471	-0.19374871768323776	1.5376622293173077	-0.689881642698452	-0.1817732798523683	1.5584779325065452	-0.6633802387919187	-0.19578710658741605	2.051904056468691	-0.5882622536155251	-0.22120241679568306	2.120185513294863	-0.5701572724556722	-0.19922832701965168	2.0492649353935075	-0.5051937039244264	-0.21453361930437878	1.9352045632945873	-0.46662937042911956	-0.20918153938897488	1.8575383390616194	-0.44972124148127857	-0.17938763777310707	2.0497179185927235	-0.683937041390718	-0.18071842585962788	1.9585250279744946	-0.6870385390023974	-0.15455627752170442	1.8673042398700213	-0.7111869728945958
3	0.1	-0.1983382888556866	1.861920418215639	-0.5767730143132764	-0.21181768707780227	1.8592529840521965	-0.5015582442603528	-0.2251875936749164	1.7284375879782625	-0.48330949634996545	-0.21123676582800696	1.5787209258061485	-0.43668360201925793	-0.20518086165084057	1.5749627837428932	-0.37339874842517246	-0.19873538764215026	1.5877587476652217	-0.3591809035769447	-0.209758730642549	1.578292589033975	-0.4471606097269621	-0.18013984461604596	1.8651406230992298	-0.6319270691507359	-0.18677180470335644	1.7200078461548982	-0.6499637296541524	-0.18281591518419793	1.5653535779369334	-0.6569800806072764	-0.20522024262110433	1.5338988282597388	-0.658184689063751	-0.19373633536913473	1.5376751579140162	-0.689879589682681	-0.18021560823820096	1.5600940786286814	-0.6615826949128889	-0.1958425689355238	2.051923833662957	-0.5881260849478358	-0.22117712975081408	2.1201736978999963	-0.5702260214925445	-0.20113961212289827	2.0491712495700862	-0.5029776584241825	-0.21367086787791395	1.9395606692997007	-0.4647087028193418	-0.21222573414397833	1.8619030781631352	-0.4428876047112282	-0.1794305995083721	2.0510467325051134	-0.6842860076452201	-0.17925010336796432	1.9610922034222222	-0.6927257315047723	-0.1587372410604558	1.8714489391609515	-0.7156711482995681
4	0.13333333333333333	-0.20044513218469445	1.8659027097369685	-0.5753347019832294	-0.21388889926833077	1.8633297235503439	-0.5001155412771201	-0.22249018059706893	1.729961267543053	-0.48223674908794534	-0.2114252569098597	1.5800243479402105	-0.4365714496142737	-0.20518086165084057	1.5749627837428932	-0.37339874842517246	-0.19873538764215026	1.5877587476652217	-0.3591809035769447	-0.20962521941743653	1.5777782768247874	-0.447294899238807	-0.18317934253954415	1.8691637308273916	-0.6333893246347928	-0.18677765987760842	1.7226980436781856	-0.6503183547909603	-0.18230577336975434	1.568075460054261	-0.6581129702752047	-0.205448091303526	1.5325323811323492	-0.657571529902655	-0.1937239530550317	1.5376880865107247	-0.6898775366669101	-0.17865793662403362	1.5617102247508177	-0.6597851510338592	-0.19589803128363154	2.0519436108572227	-0.5879899162801465	-0.2211518427059451	2.12016188250513	-0.5702947705294169	-0.20305089722614486	2.049077563746665	-0.5007616129239386	-0.21280811645144912	1.943916775304814	-0.462788035209564	-0.21526992889898178	1.866267817264651	-0.4360539679411778	-0.17947356124363711	2.0523755464175033	-0.6846349738997222	-0.17778178087630075	1.96365937886995	-0.6984129240071473	-0.1629182045992072	1.8755936384518817	-0.7201553237045405
5	0.16666666666666666	-0.2025519755137023	1.869885001258298	-0.5738963896531825	-0.21596011145885927	1.8674064630484912	-0.49867283829388753	-0.21979276751922147	1.7314849471078433	-0.4811640018259252	-0.21161374799171243	1.5813277700742725	-0.43645929720928944	-0.20518086165084057	1.5749627837428932	-0.37339874842517246	-0.19873538764215026	1.5877587476652217	-0.3591809035769447	-0.20949170819232407	1.5772639646156	-0.4474291887506519	-0.18621884046304235	1.8731868385555535	-0.6348515801188497	-0.1867835150518604	1.725388241201473	-0.6506729799277683	-0.18179563155531075	1.5707973421715886	-0.6592458599431329	-0.2056759399859477	1.5311659340049597	-0.6569583707415589	-0.19371157074092868	1.5377010151074333	-0.6898754836511392	-0.17710026500986628	1.563326370872954	-0.6579876071548294	-0.19595349363173928	2.0519633880514885	-0.5878537476124572	-0.2211265556610761	2.1201500671102633	-0.5703635195662893	-0.20496218232939145	2.0489838779232437	-0.4985455674236947	-0.2119453650249843	1.9482728813099275	-0.46086736759978625	-0.21831412365398523	1.8706325563661668	-0.4292203311711274	-0.17951652297890214	2.0537043603298932	-0.6849839401542243	-0.1763134583846372	1.9662265543176776	-0.7041001165095222	-0.16709916813795858	1.8797383377428118	-0.7246394991095129
6	0.2	-0.20465881884271014	1.8738672927796274	-0.5724580773231355	-0.21803132364938776	1.8714832025466386	-0.4972301353106549	-0.217095354441374	1.7330086266726337	-0.4800912545639051	-0.21180223907356516	1.5826311922083345	-0.4363471448043052	-0.20518086165084057	1.5749627837428932	-0.37339874842517246	-0.19873538764215026	1.5877587476652217	-0.3591809035769447	-0.2093581969672116	1.5767496524064124	-0.4475634782624968	-0.18925833838654055	1.8772099462837153	-0.6363138356029066	-0.18678937022611236	1.7280784387247603	-0.6510276050645762	-0.18128548974086717	1.5735192242889162	-0.6603787496110611	-0.20590378866836936	1.5297994868775702	-0.6563452115804629	-0.19369918842682565	1.5377139437041418	-0.6898734306353682	-0.17554259339569894	1.5649425169950901	-0.6561900632757997	-0.19600895597984702	2.0519831652457543	-0.587717578944768	-0.22110126861620713	2.120138251715397	-0.5704322686031617	-0.20687346743263804	2.0488901920998224	-0.4963295219234508	-0.21108261359851946	1.9526289873150409	-0.4589466999900085	-0.22135831840898867	1.8749972954676826	-0.422386694401077	-0.17955948471416716	2.055033174242283	-0.6853329064087264	-0.17484513589297362	1.9687937297654052	-0.7097873090118971	-0.17128013167670997	1.883883037033742	-0.7291236745144852
7	0.23333333333333334	-0.206765662171718	1.8778495843009568	-0.5710197649930885	-0.22010253583991626	1.875559942044786	-0.4957874323274223	-0.21439794136352655	1.734532306237424	-0.479018507301885	-0.2119907301554179	1.5839346143423965	-0.43623499239932095	-0.20518086165084057	1.5749627837428932	-0.37339874842517246	-0.19873538764215026	1.5877587476652217	-0.3591809035769447	-0.20922468574209915	1.5762353401972249	-0.4476977677743417	-0.19229783631003874	1.8812330540118771	-0.6377760910869634	-0.18679522540036433	1.7307686362480477	-0.6513822302013842	-0.18077534792642358	1.5762411064062438	-0.6615116392789894	-0.20613163735079104	1.5284330397501806	-0.6557320524193668	-0.19368680611272263	1.5377268723008504	-0.6898713776195973	-0.1739849217815316	1.5665586631172264	-0.6543925193967699	-0.19606441832795476	2.05200294244002	-0.5875814102770787	-0.22107598157133815	2.1201264363205303	-0.570501017640034	-0.20878475253588463	2.048796506276401	-0.4941134764232069	-0.21021986217205463	1.9569850933201542	-0.4570260323802307	-0.22440251316399212	1.8793620345691984	-0.4155530576310266	-0.17960244644943218	2.056361988154673	-0.6856818726632284	-0.17337681340131006	1.971360905213133	-0.715474501514272	-0.17546109521546135	1.8880277363246722	-0.7336078499194576
8	0.26666666666666666	-0.20887250550072584	1.8818318758222863	-0.5695814526630415	-0.22217374803044476	1.8796366815429333	-0.49434472934418966	-0.2117005282856791	1.7360559858022144	-0.4779457600398649	-0.21217922123727062	1.5852380364764584	-0.4361228399943367	-0.20518086165084057	1.5749627837428932	-0.37339874842517246	-0.19873538764215026	1.5877587476652217	-0.3591809035769447	-0.2090911745169867	1.5757210279880374	-0.44783205728618664	-0.19533733423353694	1.885256161740039	-0.6392383465710203	-0.1868010805746163	1.733458833771335	-0.6517368553381921	-0.18026520611198	1.5789629885235714	-0.6626445289469176	-0.20635948603321272	1.527066592622791	-0.6551188932582708	-0.1936744237986196	1.537739800897559	-0.6898693246038263	-0.17242725016736427	1.5681748092393626	-0.6525949755177402	-0.1961198806760625	2.052022719634286	-0.5874452416093894	-0.22105069452646917	2.120114620925664	-0.5705697666769064	-0.21069603763913122	2.04870282045298	-0.491897430922963	-0.2093571107455898	1.9613411993252676	-0.45510536477045294	-0.22744670791899557	1.8837267736707142	-0.40871942086097623	-0.1796454081846972	2.057690802067063	-0.6860308389177305	-0.1719084909096465	1.9739280806608606	-0.721161694016647	-0.17964205875421274	1.8921724356156024	-0.73809202532443
